<svg id="ns" version="1.1" xmlns="http://www.w3.org/2000/svg" xmlns:xlink="http://www.w3.org/1999/xlink" x="0px" y="0px"
   viewBox="0 0 79.5 45.7" enable-background="new 0 0 79.5 45.7" xml:space="preserve">
<g>
  <path fill="#F58020" d="M0.6,1h13.7L27,24.4h0.1V1h12.7v43.6H26.8L13.4,20.8h-0.1v23.8H0.6V1z"/>
  <path fill="#F58020" d="M51.4,30c0,1.1,0.2,2.1,0.5,2.9c1,2.6,3.9,3.2,6.4,3.2c2.2,0,5.6-0.7,5.6-4c0-2.3-1.9-2.9-9.4-5
    c-6.9-2-14.8-3.8-14.8-12.6C39.7,4.3,48.3,0,57.3,0c9.5,0,17.8,3.6,18.2,14.2H62.8c0.2-1.6-0.5-2.7-1.6-3.5
    c-1.1-0.8-2.6-1.1-4-1.1c-1.8,0-4.8,0.5-4.8,2.9c0.2,3.1,6.5,3.8,12.6,5.5c6.2,1.7,12.3,4.6,12.3,12.6c0,11.4-10.4,15-20.1,15
    c-4.9,0-19-1.8-19.2-15.7H51.4z"/>
</g>
</svg>
