<svg xmlns="http://www.w3.org/2000/svg" viewBox="0 0 474.4 266.34">
    <g fill="#f58020">
        <path d="M16.05 5.37h68.38l88.78 157.52h.72V5.37h62.64V261H168.2L79.42 101.67h-.72V261H16.05z"/>
        <path d="M294.78 175.06c1.43 30.07 20 39.73 48.33 39.73 20 0 40.81-7.16 40.81-26.13 0-22.55-36.52-26.85-73.39-37.23-36.52-10.38-74.82-26.85-74.82-73.75C235.71 21.84 291.91 0 339.88 0c50.84 0 102 24.7 102.39 82.34h-66.59c1.08-23.27-20.76-30.79-41.17-30.79-14.32 0-32.21 5-32.21 21.84 0 19.69 36.87 23.27 74.1 33.65 36.87 10.38 74.1 27.56 74.1 73.74 0 64.8-55.13 85.56-111.33 85.56-58.71 0-110.62-25.77-111-91.28z"/>
    </g>
    <g id="mustache">
        <path d="M168.07 104.61c-59.6 3-113.84 79.27-168.07 12.52 0 90 141.25 181.77 237.2 97.14 95.36 84 237.2-7.75 237.2-97.14-74.5 91.78-149-85.83-237.2 26.81-23.84-31.58-47.08-40.52-69.13-39.33z" fill="#010101"/>
    </g>
</svg>
