<svg id="ns" version="1.1" xmlns="http://www.w3.org/2000/svg" xmlns:xlink="http://www.w3.org/1999/xlink" x="0px" y="0px"
   viewBox="0 0 82.5 64.8" enable-background="new 0 0 82.5 64.8" xml:space="preserve">
<g>
  <path fill="#F58020" d="M3.5,7.1h13.7L30,30.4h0.1V7.1h12.7v43.6H29.7L16.4,26.8h-0.1v23.8H3.5V7.1z"/>
  <path fill="#F58020" d="M54.4,36c0,1.1,0.2,2.1,0.5,2.9c1,2.6,3.9,3.2,6.4,3.2c2.2,0,5.6-0.7,5.6-4c0-2.3-1.9-2.9-9.4-5
    c-6.9-2-14.8-3.8-14.8-12.6C42.7,10.4,51.3,6,60.2,6c9.5,0,17.8,3.6,18.2,14.2H65.7c0.2-1.6-0.5-2.7-1.6-3.5
    c-1.1-0.8-2.6-1.1-4-1.1c-1.8,0-4.8,0.5-4.8,2.9c0.2,3.1,6.5,3.8,12.6,5.5c6.2,1.7,12.3,4.6,12.3,12.6c0,11.4-10.4,15-20.1,15
    c-4.9,0-19-1.8-19.2-15.7H54.4z"/>
</g>
<g id="mustache" transform="translate(0,-952.36217)" opacity="0.95">
  <path fill="#010101" d="M31.1,977.4c-10,0.5-19.1,13.3-28.2,2.1c0,15.1,23.7,30.5,39.8,16.3
    c16,14.1,39.8-1.3,39.8-16.3c-12.5,15.4-25-14.4-39.8,4.5C38.7,978.8,34.9,977.2,31.1,977.4z"/>
</g>
</svg>
